<svg width="28" height="28" viewBox="0 0 28 28" fill="none" xmlns="http://www.w3.org/2000/svg">
<path d="M18.6666 22.1666C17.7383 22.1666 16.8481 21.7978 16.1917 21.1415C15.5353 20.4851 15.1666 19.5948 15.1666 18.6666C15.1666 17.7383 15.5353 16.8481 16.1917 16.1917C16.8481 15.5353 17.7383 15.1666 18.6666 15.1666C19.5948 15.1666 20.4851 15.5353 21.1415 16.1917C21.7978 16.8481 22.1666 17.7383 22.1666 18.6666C22.1666 19.5948 21.7978 20.4851 21.1415 21.1415C20.4851 21.7978 19.5948 22.1666 18.6666 22.1666ZM9.33325 22.1666C8.40499 22.1666 7.51476 21.7978 6.85838 21.1415C6.202 20.4851 5.83325 19.5948 5.83325 18.6666C5.83325 17.7383 6.202 16.8481 6.85838 16.1917C7.51476 15.5353 8.40499 15.1666 9.33325 15.1666C10.2615 15.1666 11.1517 15.5353 11.8081 16.1917C12.4645 16.8481 12.8333 17.7383 12.8333 18.6666C12.8333 19.5948 12.4645 20.4851 11.8081 21.1415C11.1517 21.7978 10.2615 22.1666 9.33325 22.1666ZM18.6666 12.8333C17.7383 12.8333 16.8481 12.4645 16.1917 11.8081C15.5353 11.1517 15.1666 10.2615 15.1666 9.33325C15.1666 8.40499 15.5353 7.51476 16.1917 6.85838C16.8481 6.202 17.7383 5.83325 18.6666 5.83325C19.5948 5.83325 20.4851 6.202 21.1415 6.85838C21.7978 7.51476 22.1666 8.40499 22.1666 9.33325C22.1666 10.2615 21.7978 11.1517 21.1415 11.8081C20.4851 12.4645 19.5948 12.8333 18.6666 12.8333ZM9.33325 12.8333C8.40499 12.8333 7.51476 12.4645 6.85838 11.8081C6.202 11.1517 5.83325 10.2615 5.83325 9.33325C5.83325 8.40499 6.202 7.51476 6.85838 6.85838C7.51476 6.202 8.40499 5.83325 9.33325 5.83325C10.2615 5.83325 11.1517 6.202 11.8081 6.85838C12.4645 7.51476 12.8333 8.40499 12.8333 9.33325C12.8333 10.2615 12.4645 11.1517 11.8081 11.8081C11.1517 12.4645 10.2615 12.8333 9.33325 12.8333Z" fill="black"/>
</svg>
