<svg width="16" height="16" viewBox="0 0 16 16" fill="none" xmlns="http://www.w3.org/2000/svg">
<path d="M12 10.6666C11.4747 10.6666 11 10.8733 10.644 11.2046L5.94 8.46658C5.97333 8.31325 6 8.15992 6 7.99992C6 7.83992 5.97333 7.68658 5.94 7.53325L10.64 4.79325C11 5.12659 11.4733 5.33325 12 5.33325C13.1067 5.33325 14 4.43992 14 3.33325C14 2.22659 13.1067 1.33325 12 1.33325C10.8933 1.33325 10 2.22659 10 3.33325C10 3.49325 10.0267 3.64658 10.06 3.79992L5.36 6.53992C5 6.20659 4.52667 5.99992 4 5.99992C2.89333 5.99992 2 6.89325 2 7.99992C2 9.10659 2.89333 9.99992 4 9.99992C4.52667 9.99992 5 9.79325 5.36 9.45992L10.0587 12.2053C10.0211 12.3562 10.0014 12.511 10 12.6666C10 13.0621 10.1173 13.4488 10.3371 13.7777C10.5568 14.1066 10.8692 14.363 11.2346 14.5143C11.6001 14.6657 12.0022 14.7053 12.3902 14.6282C12.7781 14.551 13.1345 14.3605 13.4142 14.0808C13.6939 13.8011 13.8844 13.4447 13.9616 13.0568C14.0387 12.6688 13.9991 12.2667 13.8478 11.9012C13.6964 11.5358 13.44 11.2234 13.1111 11.0036C12.7822 10.7839 12.3956 10.6666 12 10.6666Z" fill="white"/>
</svg>
